<svg width="1024" height="1024" viewBox="0 0 1024 1024" fill="none" xmlns="http://www.w3.org/2000/svg">
  <rect width="1024" height="1024" fill="transparent" />
  <g clip-path="url(#clip0_1_2)">
    <path
      d="M905.017 429.361C899.39 399.773 890.485 370.923 878.473 343.356C842.373 262.14 780.06 195.774 701.773 155.164C623.487 114.555 533.885 102.119 447.693 119.899C433.071 122.867 418.635 126.714 404.464 131.417C383.947 136.594 363.903 143.53 344.549 152.151C295.169 174.347 250.864 206.655 214.423 247.04C177.982 287.426 150.195 335.013 132.811 386.807C115.427 438.6 108.824 493.476 113.416 547.981C118.009 602.485 133.698 655.436 159.496 703.499C168.701 720.604 179.092 737.027 190.591 752.644C202.257 768.07 214.926 782.693 228.511 796.414C282.427 850.734 350.783 888.005 425.25 903.684C499.717 919.364 577.08 912.775 647.915 884.722L672.942 873.972L695.695 862.453C710.996 853.75 725.692 844.001 739.683 833.273L760.16 817.147L769.261 808.701L777.604 801.79L792.772 787.967L798.081 783.36L802.631 777.985L816.283 762.627C833.366 743.03 848.364 721.668 861.029 698.892C880.934 663.747 895.266 625.657 903.5 586.011C914.298 534.417 914.813 481.159 905.017 429.361ZM772.295 792.575L763.194 801.022L754.093 809.468L734.374 825.594C720.601 835.793 706.158 845.029 691.144 853.238L668.392 864.757L644.123 874.74L606.96 887.026H603.168C552.42 897.746 500.06 898.007 449.21 887.794C420.21 881.819 391.969 872.545 365.026 860.15C336.603 847.113 309.861 830.609 285.392 811.004C259.478 789.981 236.289 765.729 216.377 738.822C206.059 724.889 196.684 710.266 188.315 695.052C183.765 687.373 179.973 679.694 176.181 671.247C172.389 662.801 168.597 655.122 166.321 646.675C141.691 581.698 134.751 511.216 146.224 442.595C157.698 373.973 187.165 309.732 231.545 256.584L237.612 250.441L241.404 245.834L245.955 241.226L255.056 232.779L273.258 216.654C316.393 181.263 366.611 155.79 420.434 142C474.257 128.211 530.398 126.434 584.966 136.793C624.012 143.928 661.661 157.412 696.453 176.723C718.959 189.231 740.064 204.163 759.402 221.261L774.57 235.083L779.879 239.691L784.429 245.066L798.081 260.424C841.287 310.482 870.829 371.099 883.782 436.272C893.787 487.507 893.529 540.254 883.023 591.386C877.08 620.49 867.921 648.824 855.72 675.855C842.391 704.723 825.577 731.806 805.665 756.484L789.738 774.913L772.295 792.575ZM431.766 892.401C395.468 884.803 360.463 871.867 327.864 854.006C311.489 844.912 295.775 834.648 280.842 823.291C266.15 811.95 252.215 799.636 239.129 786.432C187.733 733.775 152.503 667.172 137.698 594.674C122.892 522.176 129.146 446.887 155.704 377.912C158.737 369.465 162.529 361.786 165.563 354.107L170.113 344.124C158.347 371.186 149.695 399.528 144.327 428.593C129.781 501.815 136.094 577.715 162.529 647.443C165.563 655.889 169.355 664.336 173.147 672.015C176.939 679.694 180.731 688.141 185.282 695.82C193.627 711.293 203.002 726.174 213.343 740.358C233.408 767.61 256.859 792.128 283.117 813.308C308.036 833.263 335.292 850.028 364.268 863.221C432.439 894.292 508.044 904.695 581.933 893.169C532.321 902.989 481.277 902.728 431.766 892.401ZM901.225 586.011C893.252 625.62 879.176 663.712 859.512 698.892C847.091 721.635 832.348 742.997 815.524 762.627L801.873 777.985L797.322 783.36L792.013 787.967L777.604 801.022H779.12L796.564 782.592L812.491 763.395C832.228 737.908 848.785 710.053 861.788 680.462C894.976 604.2 903.471 519.258 886.057 437.807C881.543 416.304 875.2 395.236 867.097 374.84C860.469 357.645 852.612 340.963 843.586 324.927C830.911 302.157 815.914 280.795 798.839 261.192L785.188 245.834L780.637 240.458L775.328 235.851L760.16 222.029C741.141 203.766 720.299 187.553 697.97 173.652C682.155 164.248 665.678 156.035 648.673 149.079C628.551 140.62 607.743 133.94 586.483 129.114C554.87 122.067 522.522 118.972 490.164 119.899C548.651 114.701 607.537 123.106 662.325 144.472L686.594 154.454L710.105 166.741C725.133 175.21 739.576 184.702 753.334 195.153L773.053 211.278L782.154 219.725L791.255 228.172L808.699 245.834L824.625 264.263C844.26 288.992 860.816 316.071 873.922 344.892C886.123 371.922 895.282 400.257 901.225 429.361C911.521 480.799 911.521 533.805 901.225 585.243V586.011Z"
      fill="white" />
    <path
      d="M438.505 498.099C440.024 498.867 441.594 499.468 443.196 499.892C444.286 506.106 448.707 511.855 455.099 515.093C457.827 516.472 460.719 517.302 463.629 517.549C464.416 524.05 468.889 530.187 475.671 533.616C480.46 536.043 485.767 536.766 490.608 535.667C493.215 535.069 495.532 533.989 497.462 532.495C499.291 535.929 502.365 539.974 507.355 542.478C514.792 546.21 524.149 545.432 535.163 540.184C559.544 528.568 578.08 535.77 582.461 537.824L583.226 538.208C583.343 538.274 583.437 538.318 583.499 538.348L605.495 549.489C606.019 549.75 606.573 549.876 607.119 549.876C608.456 549.876 609.742 549.131 610.383 547.836C611.282 546.015 610.554 543.798 608.755 542.887L586.901 531.824C586.795 531.761 586.592 531.654 586.296 531.507C583.182 529.792 565.117 518.78 559.457 491.001C556.995 478.927 551.99 470.884 544.586 467.1C539.494 464.497 534.333 464.493 530.494 465.116C530.344 458.139 525.806 451.025 518.336 447.238C511.685 443.875 504.237 443.867 498.653 446.991C496.697 444.734 494.268 442.846 491.485 441.433C484.095 437.694 475.609 438.206 469.941 442.392C468.98 441.706 467.975 441.098 466.929 440.57C462.143 438.147 456.837 437.414 451.989 438.524C448.172 439.394 444.974 441.312 442.697 444.059C433.013 440.168 422.439 443.251 418.4 451.434C414.386 459.559 418.229 469.899 426.978 475.434C424.545 483.721 429.301 493.442 438.505 498.099ZM424.909 454.735C427.418 449.653 434.794 448.204 441.335 451.519C441.55 451.626 441.747 451.748 442.158 451.984C443.029 452.485 444.074 452.574 445.029 452.286C445.986 451.991 446.788 451.287 447.236 450.383C448.387 448.045 450.645 446.39 453.581 445.715C456.782 444.992 460.366 445.49 463.662 447.168C465.086 447.887 466.405 448.82 467.589 449.941C468.313 450.631 469.271 450.977 470.277 450.929C471.267 450.874 472.196 450.409 472.841 449.642C476.064 445.833 482.525 445.15 488.218 448.031C490.99 449.436 493.234 451.493 494.705 453.99C495.27 454.949 496.231 455.598 497.324 455.753C498.427 455.908 499.52 455.554 500.321 454.79C503.731 451.556 509.791 451.169 515.069 453.835C521.574 457.132 524.856 463.903 522.426 468.981L522.372 469.088C521.486 470.913 522.222 473.119 524.021 474.022C525.5 474.771 527.245 474.398 528.312 473.225C530.468 472.492 536.103 471.02 541.293 473.679C546.614 476.401 550.322 482.729 552.311 492.49C554.7 504.229 559.082 513.293 563.82 520.141L534.668 505.379L527.897 484.801C527.263 482.873 525.212 481.822 523.289 482.471C521.384 483.112 520.35 485.2 520.987 487.136L525.456 500.718L508.629 492.199L501.858 471.625C501.221 469.696 499.181 468.642 497.251 469.294C495.346 469.936 494.312 472.023 494.949 473.959L499.418 487.538L481.535 478.481L474.76 457.903C474.126 455.974 472.076 454.919 470.153 455.572C468.248 456.214 467.213 458.301 467.851 460.237L472.32 473.816L453.792 464.434C451.992 463.53 449.807 464.26 448.904 466.082C448.004 467.904 448.733 470.12 450.532 471.031L468.827 480.295L455.762 484.702C453.857 485.347 452.823 487.434 453.457 489.371C453.967 490.916 455.387 491.893 456.913 491.893C457.292 491.893 457.682 491.83 458.064 491.705L478.045 484.967L495.925 494.021L482.86 498.428C480.956 499.073 479.921 501.16 480.555 503.096C481.065 504.642 482.485 505.619 484.011 505.619C484.39 505.619 484.78 505.556 485.162 505.431L505.144 498.693L521.96 507.208L508.892 511.619C506.987 512.261 505.952 514.348 506.59 516.284C507.1 517.829 508.516 518.806 510.043 518.806C510.421 518.806 510.811 518.744 511.193 518.615L531.168 511.873L559.89 526.418C551.848 526.713 542.386 528.59 532.042 533.517C523.162 537.75 515.961 538.54 510.629 535.906C503.982 532.61 502.168 524.755 502.153 524.692C501.829 523.162 500.584 522.004 499.05 521.808C498.897 521.79 498.741 521.779 498.591 521.779C497.225 521.779 495.954 522.557 495.332 523.818C494.181 526.156 491.922 527.808 488.987 528.483C485.774 529.217 482.201 528.704 478.909 527.03C473.544 524.316 470.229 519.098 470.845 514.34C470.99 513.223 470.623 512.106 469.85 511.294C469.078 510.483 467.986 510.103 466.878 510.192C464.016 510.479 461.084 509.897 458.341 508.506C453.435 506.021 450.168 501.337 450.208 496.849C450.226 494.98 448.857 493.394 447.028 493.158C445.222 492.926 443.448 492.372 441.751 491.513C435.205 488.205 431.927 481.368 434.43 476.294C434.506 476.143 434.594 475.999 434.79 475.674C435.333 474.763 435.377 473.62 435.052 472.606C434.728 471.592 433.909 470.729 432.94 470.312C432.692 470.205 432.441 470.095 432.211 469.98C425.677 466.658 422.399 459.82 424.909 454.735Z"
      fill="white" />
    <path
      d="M656.625 355.335C654.658 349.929 650.892 346.366 647.668 344.172C649.198 342.45 650.4 340.348 651.212 337.947C652.811 333.19 652.662 327.769 650.79 322.687C648.193 315.636 642.748 310.495 636.559 308.921C636.647 305.919 636.148 302.858 635.059 299.911C632.174 292.079 625.618 286.584 618.654 285.739C618.414 284.578 618.086 283.438 617.674 282.324C615.802 277.243 612.411 273.05 608.124 270.516C604.737 268.517 601.117 267.695 597.595 268.145C593.137 258.638 583.328 253.586 574.856 256.776C570.354 258.479 566.942 262.182 565.248 267.201C563.879 271.276 563.791 275.841 564.968 280.252C561.639 282.221 559.111 285.441 557.73 289.541C556.131 294.299 556.281 299.72 558.153 304.801C558.743 306.413 559.49 307.936 560.375 309.348C556.984 314.644 556.35 321.902 558.845 328.683C559.912 331.575 561.471 334.178 563.431 336.365C559.628 341.668 558.772 349.243 561.42 356.434C564.403 364.529 571.13 369.916 578.123 370.632C577.144 374.404 576.666 379.497 578.637 384.785C581.565 392.648 588.93 398.537 600.523 402.302C626.237 410.648 634.924 428.762 636.723 433.254L636.986 433.962C637.062 434.176 637.113 434.32 637.139 434.382L645.712 457.659C646.255 459.142 647.646 460.056 649.125 460.056C649.548 460.056 649.977 459.979 650.4 459.824C652.287 459.116 653.241 456.988 652.538 455.082L643.993 431.886C643.953 431.768 643.884 431.55 643.767 431.255C642.642 427.855 636.844 407.325 651.409 383.089C657.735 372.553 659.491 363.219 656.625 355.335ZM645.184 379.257C639.033 389.495 636.133 399.149 634.986 407.432L623.597 376.506L632.498 356.777C633.332 354.926 632.531 352.739 630.699 351.894C628.878 351.05 626.707 351.861 625.877 353.716L620.002 366.737L613.428 348.892L622.329 329.163C623.163 327.312 622.362 325.125 620.53 324.28C618.705 323.436 616.542 324.251 615.708 326.102L609.833 339.127L602.843 320.15L611.745 300.42C612.579 298.569 611.778 296.382 609.946 295.538C608.121 294.69 605.957 295.505 605.123 297.36L599.248 310.381L592.008 290.725C591.308 288.815 589.207 287.856 587.324 288.56C585.437 289.269 584.483 291.396 585.186 293.303L592.335 312.712L579.806 306.918C577.97 306.074 575.81 306.889 574.984 308.74C574.15 310.591 574.951 312.782 576.783 313.623L595.934 322.477L602.923 341.454L590.39 335.657C588.569 334.809 586.399 335.624 585.568 337.479C584.734 339.33 585.535 341.517 587.367 342.361L606.522 351.219L613.096 369.064L600.567 363.271C598.742 362.426 596.579 363.238 595.744 365.093C594.91 366.944 595.712 369.131 597.544 369.975L616.695 378.833L627.916 409.298C621.83 403.962 613.646 398.803 602.759 395.27C593.424 392.238 587.611 387.85 585.484 382.237C582.836 375.241 586.803 368.238 586.836 368.179C587.63 366.837 587.498 365.133 586.508 363.931C585.801 363.072 584.767 362.604 583.707 362.604C583.281 362.604 582.851 362.681 582.432 362.836C577.195 364.816 570.813 360.793 568.253 353.845C566.159 348.159 567.248 342.052 570.901 338.998C571.757 338.283 572.245 337.206 572.223 336.081C572.201 334.953 571.673 333.902 570.788 333.219C568.515 331.468 566.752 329.004 565.678 326.095C563.762 320.891 564.527 315.208 567.575 311.952C568.847 310.595 568.912 308.493 567.732 307.055C566.57 305.639 565.645 304.012 564.978 302.213C563.693 298.724 563.569 295.066 564.629 291.913C565.601 289.025 567.466 286.93 569.866 286.023C570.03 285.961 570.198 285.92 570.544 285.82C571.556 285.529 572.365 284.733 572.813 283.763C573.261 282.797 573.239 281.605 572.813 280.628C572.707 280.385 572.594 280.138 572.496 279.868C571.21 276.38 571.087 272.722 572.146 269.568C573.119 266.681 574.984 264.586 577.402 263.675C582.632 261.684 589.021 265.711 591.578 272.64C591.662 272.873 591.734 273.112 591.876 273.573C592.197 274.602 592.969 275.428 593.949 275.852C594.816 276.225 595.81 276.236 596.688 275.893C599.099 274.997 601.86 275.34 604.449 276.874C607.29 278.552 609.56 281.399 610.849 284.895C611.402 286.399 611.741 287.996 611.85 289.63C611.92 290.633 612.39 291.566 613.154 292.211C613.919 292.857 614.939 293.17 615.897 293.041C620.84 292.481 626.004 296.438 628.23 302.478C629.311 305.414 629.563 308.471 628.962 311.314C628.732 312.406 628.998 313.541 629.69 314.412C630.382 315.275 631.424 315.776 632.52 315.776H632.527C632.535 315.776 632.542 315.776 632.549 315.776C637.211 315.776 641.903 319.671 643.964 325.254C645.25 328.742 645.374 332.401 644.314 335.554C643.341 338.441 641.476 340.536 639.058 341.447C637.175 342.159 636.221 344.279 636.916 346.186C637.492 347.76 639.011 348.656 640.588 348.583C642.653 349.523 647.778 352.344 649.788 357.879C651.85 363.551 650.302 370.742 645.184 379.257Z"
      fill="white" />
    <path
      d="M393.443 487.954C379.261 487.954 367.726 499.634 367.726 513.994C367.726 528.354 379.261 540.033 393.443 540.033C407.626 540.033 419.161 528.354 419.161 513.994C419.161 499.634 407.623 487.954 393.443 487.954ZM393.443 532.654C383.282 532.654 375.01 524.279 375.01 513.99C375.01 503.701 383.282 495.326 393.443 495.326C403.605 495.326 411.877 503.701 411.877 513.99C411.877 524.279 403.605 532.654 393.443 532.654Z"
      fill="white" />
    <path
      d="M567.371 394.735C566.687 387.813 563.372 381.581 558.055 377.178C552.737 372.774 546.05 370.739 539.206 371.432C532.369 372.125 526.214 375.477 521.865 380.865C517.52 386.249 515.506 393.028 516.191 399.95C517.338 411.477 525.701 420.553 536.485 422.821C535.531 426.048 535.2 429.463 535.542 432.914C536.227 439.836 539.537 446.072 544.859 450.476C549.495 454.311 555.177 456.354 561.085 456.354C561.955 456.354 562.83 456.31 563.711 456.221C577.817 454.779 588.139 441.99 586.719 427.704C585.564 416.131 577.045 407.085 566.352 404.825C567.32 401.572 567.71 398.168 567.371 394.735ZM523.442 399.212C522.947 394.248 524.393 389.395 527.507 385.534C530.621 381.673 535.032 379.272 539.934 378.774C540.565 378.708 541.195 378.678 541.817 378.678C546.053 378.678 550.122 380.143 553.444 382.894C557.257 386.047 559.628 390.513 560.12 395.473C560.422 398.53 559.989 401.568 558.856 404.375C558.758 404.386 558.652 404.393 558.55 404.404C558.528 404.408 558.503 404.412 558.481 404.415C557.581 404.511 556.696 404.655 555.822 404.839C555.611 404.884 555.41 404.946 555.203 404.998C554.507 405.164 553.819 405.348 553.145 405.57C552.941 405.636 552.741 405.717 552.54 405.791C551.866 406.031 551.207 406.292 550.559 406.587C550.373 406.672 550.195 406.761 550.009 406.853C549.364 407.166 548.73 407.506 548.115 407.875C547.94 407.978 547.765 408.085 547.59 408.195C546.993 408.572 546.414 408.973 545.849 409.398C545.671 409.53 545.489 409.663 545.314 409.803C544.782 410.224 544.272 410.674 543.773 411.138C543.591 411.308 543.402 411.47 543.223 411.647C542.739 412.127 542.28 412.635 541.828 413.155C541.672 413.336 541.508 413.502 541.359 413.686C541.315 413.742 541.26 413.79 541.217 413.845C540.677 414.509 540.178 415.198 539.712 415.903C531.164 414.937 524.324 408.077 523.442 399.212ZM579.471 428.438C580.487 438.675 573.09 447.846 562.983 448.879C558.08 449.399 553.28 447.916 549.47 444.763C545.656 441.61 543.285 437.141 542.794 432.181C542.295 427.173 543.832 422.441 546.691 418.772C546.815 418.613 546.935 418.458 547.062 418.307C547.747 417.485 548.486 416.714 549.299 416.021C549.375 415.954 549.459 415.903 549.535 415.84C550.297 415.213 551.12 414.656 551.979 414.155C552.154 414.055 552.322 413.945 552.497 413.849C553.407 413.358 554.369 412.949 555.367 412.613C555.581 412.54 555.804 412.484 556.022 412.418C557.071 412.112 558.146 411.865 559.267 411.747C559.275 411.747 559.278 411.743 559.286 411.743C559.38 411.732 559.475 411.736 559.57 411.728C560.098 411.684 560.622 411.651 561.143 411.651C570.482 411.647 578.513 418.835 579.471 428.438Z"
      fill="white" />
    <path
      d="M400.003 507.352C398.579 505.91 396.277 505.91 394.853 507.352L393.443 508.779L392.034 507.352C390.61 505.91 388.308 505.91 386.884 507.352C385.46 508.794 385.46 511.125 386.884 512.567L388.293 513.994L386.884 515.421C385.46 516.863 385.46 519.194 386.884 520.635C387.594 521.355 388.526 521.716 389.459 521.716C390.391 521.716 391.324 521.355 392.034 520.635L393.443 519.208L394.853 520.635C395.563 521.355 396.496 521.716 397.428 521.716C398.36 521.716 399.293 521.355 400.003 520.635C401.427 519.194 401.427 516.863 400.003 515.421L398.594 513.994L400.003 512.567C401.424 511.125 401.424 508.794 400.003 507.352Z"
      fill="white" />
    <path
      d="M634.108 479.288C619.925 479.288 608.39 490.967 608.39 505.328C608.39 519.688 619.925 531.367 634.108 531.367C648.291 531.367 659.826 519.688 659.826 505.328C659.826 490.967 648.291 479.288 634.108 479.288ZM634.108 523.988C623.946 523.988 615.675 515.613 615.675 505.324C615.675 495.035 623.946 486.66 634.108 486.66C644.27 486.66 652.542 495.035 652.542 505.324C652.542 515.613 644.27 523.988 634.108 523.988Z"
      fill="white" />
    <path
      d="M640.668 498.682C639.244 497.24 636.942 497.24 635.518 498.682L634.108 500.109L632.699 498.682C631.275 497.24 628.973 497.24 627.549 498.682C626.124 500.124 626.124 502.455 627.549 503.897L628.958 505.324L627.549 506.751C626.124 508.193 626.124 510.524 627.549 511.966C628.259 512.685 629.191 513.046 630.124 513.046C631.056 513.046 631.988 512.685 632.699 511.966L634.108 510.538L635.518 511.966C636.228 512.685 637.16 513.046 638.093 513.046C639.025 513.046 639.958 512.685 640.668 511.966C642.092 510.524 642.092 508.193 640.668 506.751L639.258 505.324L640.668 503.897C642.088 502.458 642.088 500.124 640.668 498.682Z"
      fill="white" />
    <path
      d="M543.795 403.929C544.48 404.5 545.303 404.78 546.123 404.78C547.168 404.78 548.206 404.327 548.927 403.453C550.216 401.886 550.002 399.559 548.457 398.261L546.924 396.97L548.199 395.417C549.484 393.85 549.269 391.527 547.722 390.225C546.174 388.923 543.879 389.141 542.593 390.708L541.322 392.253L539.792 390.966C538.233 389.661 535.939 389.882 534.664 391.442C533.375 393.009 533.59 395.336 535.134 396.634L536.667 397.925L535.393 399.477C534.107 401.045 534.322 403.368 535.87 404.67C536.551 405.241 537.374 405.518 538.193 405.518C539.239 405.518 540.277 405.064 541.002 404.187L542.273 402.638L543.795 403.929Z"
      fill="white" />
    <path
      d="M559.129 423.828C557.57 422.522 555.279 422.744 554.001 424.304C552.711 425.871 552.926 428.198 554.471 429.496L556.004 430.787L554.729 432.339C553.444 433.906 553.658 436.23 555.206 437.532C555.887 438.103 556.711 438.38 557.53 438.38C558.575 438.38 559.613 437.926 560.338 437.048L561.609 435.5L563.139 436.787C563.824 437.358 564.647 437.639 565.467 437.639C566.512 437.639 567.55 437.185 568.271 436.311C569.56 434.744 569.346 432.417 567.801 431.119L566.268 429.828L567.543 428.275C568.828 426.708 568.613 424.385 567.065 423.083C565.518 421.781 563.223 421.999 561.937 423.566L560.666 425.111L559.129 423.828Z"
      fill="white" />
    <path
      d="M386.046 412.222L387.124 412.388C392.511 413.222 397.14 416.674 399.515 421.63L399.992 422.626C403.98 430.945 412.132 436.152 421.267 436.211C421.321 436.211 421.372 436.215 421.427 436.215C430.496 436.211 438.644 431.126 442.716 422.906L443.2 421.921C445.64 416.994 450.317 413.602 455.715 412.842L456.786 412.687C465.829 411.415 473.241 405.179 476.119 396.402C478.996 387.625 476.749 378.14 470.255 371.639C465.895 367.28 463.932 361.033 465.01 354.929C465.607 351.54 465.633 348.479 465.083 345.643C467.031 347.189 468.652 349.165 469.767 351.485L470.244 352.481C474.232 360.8 482.38 366.007 491.514 366.066C491.569 366.066 491.62 366.066 491.675 366.066C500.744 366.066 508.892 360.981 512.96 352.772L513.452 351.776C515.892 346.849 520.569 343.457 525.959 342.697L527.045 342.546C536.088 341.273 543.5 335.037 546.378 326.261C549.255 317.484 547.008 307.999 540.514 301.497C536.154 297.138 534.191 290.891 535.265 284.788C536.868 275.683 533.295 266.618 525.941 261.138C518.584 255.655 508.979 254.884 500.882 259.132L499.895 259.645C495.058 262.182 489.311 262.141 484.5 259.541L483.542 259.025C475.485 254.663 465.866 255.308 458.447 260.696C451.024 266.08 447.334 275.093 448.82 284.22L448.999 285.308C449.88 290.751 448.066 296.279 444.143 300.1L443.36 300.863C436.775 307.272 434.408 316.731 437.172 325.545C437.322 326.017 437.533 326.449 437.704 326.906C435.275 327.319 432.9 328.079 430.613 329.277L429.636 329.79C424.803 332.32 419.048 332.286 414.241 329.686L413.283 329.17C405.23 324.804 395.611 325.453 388.188 330.841C380.765 336.225 377.075 345.238 378.561 354.365L378.74 355.453C379.621 360.896 377.807 366.424 373.885 370.245L373.102 371.008C366.524 377.417 364.156 386.873 366.924 395.686C369.692 404.5 377.017 410.836 386.046 412.222ZM448.416 306.17L449.199 305.406C454.848 299.904 457.46 291.942 456.185 284.106L456.006 283.014C454.961 276.586 457.456 270.483 462.69 266.685C465.607 264.568 468.922 263.498 472.273 263.498C474.928 263.498 477.605 264.173 480.118 265.53L481.072 266.047C487.996 269.793 496.282 269.841 503.228 266.198L504.215 265.685C509.926 262.691 516.435 263.211 521.614 267.076C526.797 270.94 529.215 277.077 528.086 283.49C526.593 291.986 529.321 300.678 535.385 306.749C539.967 311.325 541.49 317.749 539.457 323.934C537.429 330.122 532.413 334.344 526.039 335.24L524.954 335.391C517.185 336.483 510.454 341.373 506.939 348.461L506.448 349.457C503.578 355.246 498.063 358.694 491.675 358.694C491.635 358.694 491.598 358.691 491.558 358.691C485.122 358.65 479.604 355.125 476.793 349.261L476.315 348.265C472.892 341.122 466.219 336.147 458.468 334.956L457.39 334.79C451.024 333.809 446.063 329.517 444.111 323.307C442.166 317.096 443.772 310.694 448.416 306.17ZM378.161 376.315L378.944 375.551C384.593 370.049 387.204 362.087 385.93 354.251L385.751 353.159C384.706 346.731 387.201 340.628 392.435 336.83C397.665 333.035 404.181 332.607 409.863 335.675L410.817 336.192C417.734 339.938 426.016 339.983 432.984 336.339L433.956 335.83C436.458 334.517 439.146 333.887 441.791 333.935C445.294 338.087 450.139 340.938 455.671 341.941C458.031 345.271 458.694 348.778 457.838 353.635C456.341 362.131 459.069 370.824 465.134 376.894C469.716 381.47 471.238 387.894 469.206 394.079C467.177 400.267 462.162 404.489 455.784 405.385L454.706 405.537C446.937 406.628 440.203 411.518 436.684 418.617L436.2 419.602C433.33 425.391 427.815 428.84 421.427 428.84C421.387 428.84 421.35 428.836 421.31 428.836C414.871 428.795 409.353 425.27 406.541 419.406L406.064 418.411C402.644 411.267 395.971 406.296 388.217 405.101L387.139 404.935C380.776 403.954 375.815 399.662 373.863 393.455C371.918 387.241 373.52 380.836 378.161 376.315Z"
      fill="white" />
    <path
      d="M421.088 404.006C423.63 404.006 426.22 403.619 428.77 402.797C442.129 398.5 449.545 383.996 445.302 370.47C441.055 356.943 426.737 349.431 413.37 353.731C400.01 358.027 392.598 372.531 396.842 386.061C400.28 397.003 410.307 404.006 421.088 404.006ZM415.577 360.76C417.388 360.177 419.245 359.889 421.092 359.889C423.955 359.889 426.795 360.583 429.411 361.958C433.716 364.211 436.895 368.028 438.36 372.704C439.824 377.38 439.409 382.352 437.179 386.71C434.954 391.066 431.184 394.285 426.566 395.768C421.944 397.254 417.031 396.826 412.733 394.576C408.431 392.323 405.252 388.506 403.787 383.83C400.761 374.176 406.049 363.824 415.577 360.76Z"
      fill="white" />
    <path
      d="M491.34 333.861C493.882 333.861 496.472 333.474 499.021 332.651C505.493 330.572 510.778 326.061 513.9 319.954C517.021 313.851 517.607 306.878 515.55 300.328C511.306 286.801 496.981 279.289 483.622 283.589C477.149 285.669 471.865 290.179 468.743 296.286C465.622 302.393 465.035 309.367 467.093 315.916C470.531 326.862 480.559 333.861 491.34 333.861ZM475.215 299.675C477.441 295.316 481.211 292.097 485.829 290.615C487.639 290.032 489.497 289.744 491.343 289.744C494.206 289.744 497.043 290.438 499.662 291.813C503.964 294.066 507.143 297.883 508.607 302.559C510.075 307.235 509.656 312.206 507.431 316.565C505.206 320.921 501.436 324.14 496.818 325.623C492.192 327.105 487.282 326.681 482.984 324.431C478.683 322.178 475.503 318.361 474.039 313.685C472.568 309.009 472.99 304.031 475.215 299.675Z"
      fill="white" />
    <path
      d="M335.099 660.373C333.763 660.373 332.531 660.373 331.195 660.061C330.476 659.853 329.757 659.541 329.243 659.021C328.627 658.397 328.216 657.669 328.113 656.837C328.011 656.213 327.908 655.693 327.908 655.069V652.052V623.865V595.782V592.454C328.011 591.83 328.011 591.102 328.216 590.478C328.524 589.334 329.346 588.398 330.476 587.982C330.99 587.878 331.606 587.774 332.12 587.67C332.942 587.566 333.661 587.566 334.38 587.566H354C358.623 587.566 363.04 588.294 367.458 589.542C372.389 590.894 376.703 593.182 380.401 596.719C383.072 599.319 385.127 602.335 386.565 605.767C388.106 609.2 389.03 612.944 389.441 616.689C389.852 619.185 390.16 621.681 390.058 624.177C389.955 627.818 389.544 631.354 388.722 634.89C387.592 639.571 385.64 643.939 382.764 647.684C380.196 651.116 377.114 653.82 373.416 655.901C368.896 658.397 364.068 659.645 358.931 660.061C355.541 660.373 352.151 660.373 348.761 660.373H335.099ZM352.151 645.708C352.973 645.812 353.795 645.708 354.617 645.5C360.472 644.355 364.581 640.923 367.047 635.411C368.485 632.498 369.101 629.274 369.307 625.946V620.953C369.204 618.457 368.793 615.96 368.074 613.568C367.56 611.592 366.739 609.824 365.609 608.16C364.581 606.704 363.451 605.559 362.013 604.623C359.753 603.063 357.082 602.231 354.309 602.127C353.487 602.023 352.562 602.127 351.638 602.231C350.816 602.231 350.097 602.647 349.481 603.271C348.659 603.999 348.145 605.039 348.042 606.079C347.94 607.224 347.94 608.264 347.837 609.408V623.969V632.706C347.837 634.89 347.837 637.075 347.94 639.259C347.94 640.091 347.94 640.923 348.042 641.755C348.351 644.147 349.789 645.5 352.151 645.708ZM406.671 660.373C405.849 660.373 405.027 660.165 404.206 660.061C403.795 660.061 403.384 659.957 403.076 659.749C402.048 659.437 401.329 658.709 401.021 657.669C400.713 656.941 400.507 656.109 400.507 655.277C400.405 654.444 400.405 653.612 400.405 652.78V594.95C400.405 593.806 400.405 592.558 400.61 591.414C400.918 589.23 402.254 587.982 404.411 587.67C405.027 587.67 405.747 587.566 406.363 587.566H414.786C415.3 587.566 415.814 587.566 416.327 587.67C416.738 587.774 417.252 587.878 417.766 587.982C418.998 588.398 419.82 589.334 420.231 590.582C420.436 591.518 420.539 592.454 420.539 593.39C420.539 594.222 420.642 595.158 420.642 596.094V623.969V651.948C420.642 652.884 420.539 653.716 420.539 654.653C420.539 655.589 420.436 656.525 420.128 657.461C419.82 658.501 419.101 659.333 418.074 659.749C417.663 659.853 417.252 660.061 416.841 660.061C416.019 660.165 415.197 660.373 414.376 660.373H406.671ZM436.023 660.373C435.201 660.373 434.379 660.269 433.557 660.061C433.146 660.061 432.735 659.957 432.324 659.749C431.297 659.333 430.681 658.501 430.578 657.253C430.578 656.733 430.578 656.109 430.784 655.485C430.989 654.444 431.297 653.404 431.605 652.364C434.584 643.523 437.461 634.578 440.337 625.633C442.905 617.937 445.371 610.24 447.836 602.543C448.863 599.527 449.788 596.51 450.815 593.494C451.123 592.558 451.432 591.726 451.843 590.894C452.664 588.918 454.205 587.982 456.26 587.67C456.979 587.566 457.698 587.566 458.52 587.566H463.451H473.107C474.032 587.566 474.956 587.67 475.881 587.774C477.627 587.982 478.962 588.918 479.784 590.478C480.195 591.414 480.606 592.246 480.914 593.286C482.044 596.406 482.969 599.631 483.996 602.751C485.126 606.079 486.153 609.304 487.181 612.528C489.441 619.601 491.803 626.57 494.063 633.538C496.118 639.883 498.172 646.332 500.227 652.676C500.535 653.508 500.74 654.444 500.946 655.381C501.151 655.901 501.151 656.525 501.254 657.045C501.254 658.293 500.535 659.333 499.405 659.749C498.48 660.165 497.659 660.269 496.734 660.269C495.604 660.373 494.577 660.373 493.447 660.373H491.495H487.489C486.667 660.269 485.742 660.165 484.818 660.061C482.866 659.749 481.531 658.605 480.811 656.733C480.503 656.005 480.195 655.173 479.99 654.444C479.681 653.508 479.373 652.676 479.065 651.844C478.141 649.66 476.6 648.308 474.237 648.1C473.415 647.996 472.696 647.996 471.977 647.996H460.061C458.931 647.996 457.903 647.996 456.876 648.204C455.13 648.516 454 649.452 453.178 650.908C452.562 651.948 452.253 653.092 451.843 654.236C451.637 655.069 451.329 656.005 451.021 656.837C450.713 657.461 450.404 657.981 449.891 658.501C449.274 659.229 448.453 659.749 447.425 659.957C446.398 660.269 445.268 660.373 444.241 660.373H436.023ZM465.608 633.434C466.738 633.33 467.662 633.33 468.587 633.33C469.306 633.226 470.025 633.122 470.744 632.81C471.772 632.29 472.491 631.562 472.593 630.314C472.696 629.274 472.491 628.13 472.285 627.09L471.052 622.721C470.333 620.225 469.614 617.833 468.895 615.336C468.69 614.504 468.382 613.672 468.073 612.944C467.868 612.528 467.56 612.112 467.252 611.696C466.327 610.656 465.3 610.656 464.478 611.696C464.17 612.216 463.862 612.736 463.656 613.256C463.245 614.088 462.937 614.92 462.732 615.856C461.704 619.497 460.677 623.033 459.65 626.674C459.547 627.298 459.342 627.818 459.342 628.442C459.239 628.962 459.239 629.586 459.239 630.106C459.239 630.938 459.65 631.562 460.163 632.082C460.882 632.81 461.704 633.122 462.629 633.226C463.656 633.33 464.786 633.33 465.608 633.434ZM518.278 660.373C517.046 660.373 515.813 660.373 514.58 660.061C513.758 659.853 513.039 659.541 512.423 658.917C511.909 658.293 511.498 657.669 511.396 656.941C511.293 656.317 511.19 655.797 511.19 655.173V651.948V623.969V595.574V592.35C511.293 591.726 511.396 590.998 511.498 590.374C511.807 589.23 512.526 588.502 513.656 588.086C514.272 587.878 514.888 587.774 515.608 587.67C516.327 587.566 517.046 587.566 517.765 587.566H536.461C539.954 587.566 543.549 587.982 547.042 588.606C549.61 589.022 552.178 589.854 554.541 591.102C556.904 592.246 558.856 593.91 560.499 595.886C562.348 598.279 563.273 601.087 563.478 604.103C563.786 608.056 562.862 611.696 560.705 615.024C560.294 615.752 559.883 616.377 559.575 617.001C559.266 617.417 559.061 617.833 558.856 618.353C558.547 619.497 558.753 620.433 559.472 621.369C559.986 621.993 560.602 622.409 561.218 622.825C562.143 623.345 563.067 623.969 563.992 624.593C565.019 625.217 565.944 626.05 566.868 626.986C570.155 630.106 572.005 635.827 571.183 640.507C570.669 643.315 569.745 645.916 568.101 648.204C566.868 649.868 565.43 651.324 563.684 652.572C562.245 653.716 560.602 654.757 558.856 655.485C556.39 656.629 553.822 657.669 551.151 658.293C548.48 658.917 545.809 659.437 543.036 659.749C542.933 659.749 542.727 659.853 542.625 659.853C539.337 659.957 536.153 660.373 532.866 660.373H518.278ZM539.543 618.041C540.776 618.145 542.008 618.041 543.241 617.729C544.679 617.313 545.706 616.481 546.323 615.024C547.35 612.528 547.35 610.032 546.22 607.536C546.015 607.12 545.809 606.808 545.604 606.392C544.474 605.039 543.138 603.895 541.495 603.271C539.748 602.543 538.002 602.127 536.153 602.127C535.845 602.127 535.537 602.127 535.228 602.231C533.277 602.335 531.838 603.687 531.427 605.663C531.325 606.079 531.222 606.6 531.222 607.12V609.928V612.424C531.222 612.944 531.222 613.464 531.325 613.88C531.633 615.752 533.071 617.625 535.331 617.729C536.769 617.833 538.105 618.041 539.543 618.041ZM535.434 645.812C538.31 646.124 541.187 645.708 543.96 644.771C545.604 644.251 547.042 643.315 548.275 641.963C551.151 638.635 550.021 634.37 547.864 632.498C546.836 631.562 545.706 630.938 544.474 630.418C541.597 629.378 538.721 629.066 535.639 629.274C535.331 629.274 535.023 629.378 534.715 629.482C533.79 629.69 532.968 630.106 532.352 630.834C531.736 631.562 531.325 632.498 531.325 633.538C531.222 634.89 531.222 636.243 531.119 637.699C531.222 638.947 531.119 640.403 531.325 641.859C531.53 644.147 533.174 645.604 535.434 645.812ZM589.543 660.373C588.002 660.373 586.563 660.373 585.125 659.957C584.303 659.749 583.687 659.437 583.173 658.917C582.66 658.293 582.249 657.669 582.146 656.941C582.043 656.317 581.941 655.797 581.941 655.173V652.156V623.969V595.366C581.941 594.326 581.941 593.182 582.043 592.142C582.043 591.414 582.146 590.79 582.352 590.166C582.763 589.126 583.379 588.398 584.406 588.086C585.228 587.774 586.05 587.67 586.872 587.67C587.796 587.566 588.721 587.566 589.543 587.566H624.367C625.189 587.566 626.113 587.566 627.038 587.67C627.757 587.67 628.373 587.774 628.99 587.982C630.428 588.294 631.25 589.334 631.558 590.686C631.66 591.206 631.763 591.726 631.763 592.246V599.007C631.763 599.423 631.66 599.839 631.66 600.255C631.352 602.023 630.12 603.271 628.373 603.479C627.757 603.583 627.141 603.687 626.627 603.687H623.648H609.985C609.061 603.687 608.136 603.687 607.212 603.791C606.39 603.791 605.568 603.895 604.849 604.207C603.616 604.623 602.897 605.455 602.383 606.6C602.383 606.808 602.281 607.016 602.178 607.328C601.87 609.096 601.87 610.968 602.075 612.84L602.383 613.776C602.897 615.336 603.924 616.273 605.568 616.585C606.39 616.793 607.212 616.793 608.033 616.793H613.991C615.224 616.793 616.457 616.897 617.69 617.105C618.101 617.209 618.511 617.209 618.922 617.417C619.95 617.729 620.771 618.457 621.08 619.601C621.388 620.433 621.593 621.369 621.593 622.305V627.818C621.593 628.65 621.388 629.482 621.182 630.314C620.771 631.562 619.95 632.29 618.717 632.602C618.409 632.81 617.998 632.81 617.587 632.914C615.943 633.018 614.3 633.226 612.553 633.226C611.012 633.122 609.472 633.122 607.931 633.226C607.109 633.226 606.39 633.226 605.671 633.33C604.027 633.538 603 634.578 602.383 636.139C601.767 637.699 601.767 639.363 602.383 641.027C603 642.691 604.027 643.731 605.876 643.835C608.239 644.043 610.602 644.147 612.964 644.251H624.881C626.011 644.251 627.038 644.251 628.168 644.355C628.784 644.459 629.401 644.563 630.017 644.98C630.941 645.708 631.558 646.54 631.66 647.684C631.763 648.1 631.763 648.516 631.763 648.932V655.485C631.763 656.005 631.66 656.629 631.558 657.253C631.25 658.605 630.428 659.437 629.195 659.853C628.271 660.165 627.449 660.269 626.524 660.269C625.805 660.373 624.983 660.373 624.264 660.373H589.543ZM662.871 660.362C661.794 660.353 660.723 660.214 659.681 659.924C658.382 659.563 657.527 658.686 657.127 657.41C656.93 656.781 656.852 656.098 656.816 655.435C656.758 654.348 656.765 653.257 656.765 652.168C656.762 639.096 656.764 626.025 656.761 612.951C656.761 611.693 656.761 610.436 656.71 609.18C656.683 608.514 656.615 607.835 656.445 607.195C656.028 605.625 655.049 604.566 653.478 604.105C652.514 603.824 651.529 603.727 650.532 603.719C648.961 603.705 647.388 603.709 645.815 603.7C644.905 603.694 643.994 603.694 643.085 603.651C642.508 603.624 641.922 603.578 641.364 603.442C639.775 603.054 638.715 602.075 638.421 600.409C637.865 597.245 637.863 594.072 638.406 590.904C638.674 589.343 639.617 588.353 641.101 587.942C641.812 587.746 642.564 587.661 643.303 587.615C644.293 587.553 645.288 587.568 646.282 587.568C653.151 587.565 660.019 587.567 666.889 587.567C673.758 587.567 680.627 587.565 687.497 587.569C688.49 587.569 689.486 587.553 690.475 587.629C691.211 587.686 691.961 587.803 692.664 588.025C693.84 588.398 694.627 589.238 695.014 590.43C695.302 591.311 695.429 592.227 695.438 593.152C695.456 594.911 695.476 596.672 695.425 598.43C695.405 599.175 695.288 599.938 695.082 600.654C694.657 602.14 693.655 603.105 692.159 603.43C691.357 603.605 690.52 603.655 689.696 603.674C687.959 603.713 686.221 603.693 684.483 603.703C683.738 603.707 682.991 603.691 682.25 603.749C681.593 603.8 680.925 603.874 680.293 604.05C678.543 604.537 677.418 605.686 677.098 607.513C676.911 608.582 676.831 609.673 676.765 610.759C676.709 611.677 676.742 612.601 676.742 613.523C676.742 626.344 676.742 639.165 676.739 651.986C676.739 653.159 676.737 654.332 676.688 655.504C676.663 656.086 676.599 656.683 676.434 657.238C676.028 658.612 675.149 659.559 673.76 659.963C672.88 660.22 671.977 660.353 671.064 660.359C668.333 660.373 665.602 660.38 662.871 660.362Z"
      fill="white" />
    <path
      d="M336.399 765.587C334.822 765.587 333.367 765.587 331.79 765.219C330.941 764.973 330.091 764.604 329.485 763.99C328.757 763.253 328.272 762.394 328.151 761.411C328.029 760.674 327.908 760.06 327.908 759.323V755.761V722.476V689.314V685.383C328.029 684.646 328.029 683.786 328.272 683.05C328.636 681.698 329.606 680.593 330.941 680.102C331.547 679.979 332.275 679.856 332.882 679.733C333.852 679.61 334.701 679.61 335.55 679.61H358.72C364.179 679.61 369.395 680.47 374.611 681.944C380.434 683.541 385.529 686.243 389.896 690.419C393.05 693.49 395.476 697.051 397.174 701.105C398.994 705.158 400.086 709.579 400.571 714.001C401.056 716.949 401.42 719.897 401.299 722.844C401.177 727.143 400.692 731.319 399.722 735.495C398.387 741.022 396.083 746.181 392.686 750.602C389.653 754.656 386.014 757.849 381.647 760.306C376.31 763.253 370.608 764.727 364.543 765.219C360.54 765.587 356.536 765.587 352.533 765.587H336.399ZM356.536 748.269C357.507 748.392 358.477 748.269 359.448 748.023C366.362 746.672 371.215 742.619 374.126 736.109C375.824 732.67 376.552 728.863 376.795 724.932V719.037C376.673 716.089 376.188 713.141 375.339 710.316C374.733 707.983 373.762 705.895 372.428 703.93C371.215 702.21 369.88 700.859 368.182 699.754C365.513 697.911 362.359 696.929 359.084 696.806C358.113 696.683 357.022 696.806 355.93 696.929C354.959 696.929 354.11 697.42 353.382 698.157C352.412 699.017 351.805 700.245 351.684 701.473C351.563 702.824 351.563 704.052 351.442 705.403V722.599V732.916C351.442 735.495 351.442 738.074 351.563 740.654C351.563 741.636 351.563 742.619 351.684 743.602C352.048 746.426 353.746 748.023 356.536 748.269ZM414.609 765.587C413.639 765.587 412.668 765.464 411.698 765.219C411.213 765.219 410.727 765.096 410.242 764.85C409.029 764.359 408.301 763.376 408.18 761.902C408.18 761.288 408.18 760.551 408.423 759.814C408.665 758.586 409.029 757.358 409.393 756.13C412.911 745.69 416.308 735.127 419.704 724.564C422.737 715.475 425.648 706.386 428.56 697.297C429.773 693.735 430.864 690.173 432.077 686.611C432.441 685.506 432.805 684.523 433.291 683.541C434.261 681.207 436.081 680.102 438.507 679.733C439.356 679.61 440.205 679.61 441.176 679.61H446.998H458.401C459.493 679.61 460.585 679.733 461.676 679.856C463.739 680.102 465.316 681.207 466.286 683.05C466.771 684.155 467.257 685.138 467.62 686.366C468.955 690.05 470.047 693.858 471.26 697.543C472.594 701.473 473.807 705.281 475.02 709.088C477.689 717.44 480.479 725.669 483.148 733.898C485.574 741.391 488 749.006 490.426 756.498C490.79 757.481 491.033 758.586 491.275 759.691C491.518 760.306 491.518 761.043 491.639 761.657C491.639 763.131 490.79 764.359 489.456 764.85C488.364 765.341 487.394 765.464 486.302 765.464C484.967 765.587 483.754 765.587 482.42 765.587H480.115H475.384C474.414 765.464 473.322 765.341 472.23 765.219C469.925 764.85 468.348 763.499 467.499 761.288C467.135 760.428 466.771 759.446 466.529 758.586C466.165 757.481 465.801 756.498 465.437 755.515C464.345 752.936 462.526 751.339 459.736 751.094C458.765 750.971 457.916 750.971 457.067 750.971H442.995C441.661 750.971 440.448 750.971 439.235 751.217C437.172 751.585 435.838 752.691 434.868 754.41C434.14 755.638 433.776 756.989 433.291 758.34C433.048 759.323 432.684 760.428 432.32 761.411C431.956 762.148 431.592 762.762 430.986 763.376C430.258 764.236 429.287 764.85 428.074 765.096C426.861 765.464 425.527 765.587 424.314 765.587H414.609ZM449.546 733.776C450.88 733.653 451.972 733.653 453.064 733.653C453.913 733.53 454.762 733.407 455.611 733.039C456.824 732.425 457.673 731.565 457.795 730.091C457.916 728.863 457.673 727.512 457.431 726.283L455.975 721.125C455.126 718.177 454.277 715.352 453.428 712.404C453.185 711.422 452.821 710.439 452.457 709.579C452.214 709.088 451.851 708.597 451.487 708.106C450.395 706.877 449.182 706.877 448.211 708.106C447.847 708.72 447.483 709.334 447.241 709.948C446.756 710.93 446.392 711.913 446.149 713.018C444.936 717.317 443.723 721.493 442.51 725.792C442.389 726.529 442.146 727.143 442.146 727.88C442.025 728.494 442.025 729.231 442.025 729.845C442.025 730.828 442.51 731.565 443.116 732.179C443.966 733.039 444.936 733.407 446.028 733.53C447.241 733.653 448.575 733.653 449.546 733.776ZM510.773 765.587C509.802 765.587 508.832 765.341 507.861 765.219C507.376 765.219 506.891 765.096 506.527 764.85C505.314 764.482 504.465 763.622 504.101 762.394C503.737 761.534 503.494 760.551 503.494 759.569C503.373 758.586 503.373 757.603 503.373 756.621V688.331C503.373 686.98 503.373 685.506 503.615 684.155C503.979 681.576 505.556 680.102 508.104 679.733C508.832 679.733 509.681 679.61 510.409 679.61H520.356C520.962 679.61 521.569 679.61 522.175 679.733C522.661 679.856 523.267 679.979 523.874 680.102C525.329 680.593 526.3 681.698 526.785 683.172C527.028 684.278 527.149 685.383 527.149 686.489C527.149 687.471 527.27 688.577 527.27 689.682V722.599V755.638C527.27 756.744 527.149 757.726 527.149 758.832C527.149 759.937 527.028 761.043 526.664 762.148C526.3 763.376 525.451 764.359 524.238 764.85C523.752 764.973 523.267 765.219 522.782 765.219C521.811 765.341 520.841 765.587 519.871 765.587H510.773ZM609.968 767.307C604.995 766.938 600.264 765.833 595.897 763.376C589.346 759.814 584.615 754.656 581.825 747.655C581.219 746.304 580.733 744.953 580.248 743.479C579.884 742.619 579.52 741.636 579.156 740.777C578.307 739.18 576.973 738.197 575.153 737.952C574.425 737.952 573.576 737.829 572.848 737.952C570.665 738.197 568.845 739.917 568.481 742.128C568.36 742.742 568.239 743.479 568.239 744.216V747.778V757.849C568.117 759.2 568.117 760.428 567.754 761.657C567.632 762.148 567.511 762.639 567.268 763.131C566.783 764.113 565.934 764.727 564.842 765.096C563.629 765.464 562.416 765.587 561.082 765.587H551.377C550.285 765.587 549.072 765.464 547.98 765.096C546.282 764.604 545.19 763.499 544.826 761.902C544.584 760.551 544.463 759.323 544.341 758.095V754.778V722.353V689.682C544.341 687.962 544.341 686.12 544.705 684.401C544.826 683.786 544.826 683.172 545.069 682.681C545.554 681.33 546.403 680.47 547.738 680.102C548.466 679.856 549.315 679.733 550.043 679.733C550.892 679.61 551.62 679.61 552.469 679.61H576.488C580.369 679.61 584.251 680.102 588.133 680.839C590.923 681.33 593.713 682.19 596.261 683.295C597.595 683.786 598.808 684.401 600.021 685.015C603.539 686.734 606.329 689.314 608.634 692.384C610.939 695.332 612.152 698.648 612.759 702.21C613.001 703.315 613.122 704.544 613.244 705.649C613.244 706.386 613.365 707.123 613.244 707.737C613.001 711.053 612.516 714.247 611.545 717.44C610.332 720.879 608.391 723.95 605.723 726.529C604.51 727.757 603.175 728.74 601.962 729.845C601.477 730.337 600.87 730.828 600.385 731.319C598.566 733.162 598.202 735.372 599.051 737.829C599.9 740.04 601.477 741.636 603.418 742.865C605.359 743.97 607.3 744.707 609.483 745.321C610.454 745.567 611.545 745.812 612.637 746.058C615.427 746.672 616.64 748.392 616.883 751.217C617.004 751.708 617.004 752.199 617.004 752.69V760.797C617.004 761.657 616.883 762.516 616.762 763.376C616.398 765.096 615.306 766.201 613.729 766.815C612.516 767.184 611.182 767.429 609.968 767.307ZM573.334 721.739C576.245 721.862 579.035 721.248 581.583 719.897C583.766 718.668 585.464 716.949 586.799 714.861C587.041 714.247 587.284 713.755 587.527 713.141C589.468 707.123 586.92 700.859 581.097 698.402C580.006 697.911 578.793 697.543 577.579 697.174C575.881 696.806 574.304 696.683 572.606 696.929C570.544 697.174 569.209 698.28 568.603 700.368C568.36 701.227 568.239 702.21 568.239 703.315V709.211V715.106C568.239 715.966 568.239 716.703 568.481 717.44C568.845 719.528 570.544 721.739 573.334 721.739ZM664.175 765.575C661.05 765.592 657.923 765.591 654.798 765.574C653.624 765.568 652.463 765.4 651.323 765.099C649.671 764.664 648.565 763.633 648.114 761.969C647.884 761.117 647.741 760.23 647.656 759.349C647.569 758.466 647.59 757.572 647.588 756.683C647.582 753.122 647.585 749.563 647.585 746.002H647.579C647.579 742.739 647.585 739.476 647.577 736.213C647.573 735.125 647.565 734.035 647.499 732.951C647.372 730.858 646.907 728.846 645.96 726.964C645.115 725.291 644.3 723.603 643.426 721.947C640.844 717.066 638.247 712.194 635.643 707.325C634.061 704.37 632.453 701.428 630.858 698.48C630.529 697.872 630.203 697.264 629.88 696.654C628.496 694.04 627.106 691.429 625.735 688.808C625.142 687.672 624.573 686.522 624.028 685.362C623.691 684.643 623.518 683.873 623.52 683.065C623.523 681.733 624.148 680.805 625.315 680.258C625.752 680.053 626.233 679.901 626.709 679.835C627.481 679.728 628.264 679.667 629.043 679.663C632.462 679.644 635.88 679.634 639.298 679.663C640.27 679.67 641.247 679.777 642.212 679.911C644.41 680.216 645.972 681.475 647.028 683.398C647.502 684.26 647.925 685.156 648.306 686.065C649.908 689.888 651.485 693.721 653.072 697.55C653.827 699.374 654.569 701.203 655.346 703.017C655.697 703.832 656.096 704.628 656.518 705.406C656.899 706.109 657.455 706.665 658.116 707.112C658.896 707.638 660.11 707.64 660.894 707.114C661.557 706.668 662.093 706.099 662.469 705.39C662.746 704.868 662.999 704.332 663.229 703.786C665.139 699.237 667.041 694.684 668.947 690.132C669.709 688.312 670.473 686.492 671.239 684.673C671.743 683.474 672.463 682.43 673.406 681.537C674.136 680.845 674.964 680.361 675.934 680.11C676.981 679.838 678.041 679.674 679.12 679.671C682.831 679.661 686.543 679.647 690.253 679.682C691.124 679.691 692.003 679.844 692.86 680.014C693.329 680.106 693.794 680.321 694.203 680.575C695 681.069 695.482 681.811 695.456 682.781C695.442 683.367 695.397 683.981 695.208 684.527C694.886 685.455 694.493 686.368 694.037 687.237C691.745 691.602 689.432 695.956 687.113 700.306C683.679 706.744 680.224 713.17 676.798 719.612C675.64 721.789 674.56 724.007 673.412 726.188C672.099 728.684 671.41 731.322 671.448 734.158C671.47 735.74 671.421 737.322 671.421 738.905C671.416 744.739 671.416 750.574 671.419 756.408C671.419 758.192 671.317 759.966 670.941 761.715C670.815 762.299 670.619 762.856 670.275 763.348C669.692 764.187 668.911 764.754 667.935 765.032C666.707 765.382 665.448 765.567 664.175 765.575Z"
      fill="white" />
  </g>
  <defs>
    <clipPath id="clip0_1_2">
      <rect width="800" height="800" fill="white" transform="translate(112 112)" />
    </clipPath>
  </defs>
</svg>